<svg xmlns="http://www.w3.org/2000/svg" viewBox="0 0 16.05836 16.99748">
  <g>
    <path d="M15.98279,9.815l-.00213-.0149-.92334-3.54132.916-2.61719a.30368.30368,0,0,0,.01526-.08056l.00061-.017a.30531.30531,0,0,0-.01166-.0896l-.00061-.00445-.65051-2.11011-.00537-.01166a.31375.31375,0,0,0-.01343-.03528l-.01141-.018-.01239-.01941a.29785.29785,0,0,0-.04022-.04694l-.00837-.00873a.30383.30383,0,0,0-.0603-.04065l-.01819-.00805a.31175.31175,0,0,0-.05517-.01831l-.01215-.004-.0069-.00031A.30692.30692,0,0,0,15.01,1.125l-.019.00312a.30307.30307,0,0,0-.05285.01214l-.02479.0094-.017.00647-1.37018.68591a.30263.30263,0,0,0-.051.03211L10.114,4.48856H5.80665L2.44538,1.87418a.30263.30263,0,0,0-.051-.03211L1.02424,1.15616,1.005,1.14878l-.0202-.00769a.30032.30032,0,0,0-.062-.01429L.9123,1.12509a.30488.30488,0,0,0-.07569.00354l-.00543.00025-.00964.00323A.30258.30258,0,0,0,.76178,1.152L.74665,1.1586A.30629.30629,0,0,0,.685,1.20011l-.00708.00738a.30252.30252,0,0,0-.04126.04822l-.0122.01923L.613,1.293a.31375.31375,0,0,0-.01343.03528l-.00543.01166L-.05639,3.45005l-.00055.00445a.304.304,0,0,0-.01166.0896l.00061.017a.30119.30119,0,0,0,.0152.08056L.86329,6.25882-.06,9.80014-.06219,9.815a.30808.30808,0,0,0-.00562.03895l-.00109.02484a.30411.30411,0,0,0,.003.0393l.00372.02442-.00079.00018s.74066,3.403.79223,3.635c.03382.1524.08149.36163,3.98871,2.64453l1.0716,1.2984a.30626.30626,0,0,0,.16137.102l1.89008.47632a.30281.30281,0,0,0,.04925.01245l.00354.00086.007.00091a.29716.29716,0,0,0,.05078.00849l.00867-.0011.00873.0011a.297.297,0,0,0,.05078-.00849l.007-.00091.00354-.00086a.30438.30438,0,0,0,.04925-.01245l1.89-.47632a.30648.30648,0,0,0,.16144-.102l1.07153-1.2984c3.90729-2.2829,3.955-2.49213,3.98877-2.64441.05157-.23211.79224-3.63513.79224-3.63513l-.0008-.00018.00373-.02442a.29284.29284,0,0,0,.003-.03924c.00006-.00836-.00037-.0166-.001-.025A.30591.30591,0,0,0,15.98279,9.815ZM14.52442,5.92575l-2.09088-.12719,2.68567-1.57239Zm.38861-3.846.40655,1.31884-2.672,1.56427Zm-12.82.29687L5.51331,5.037a.30676.30676,0,0,0,.18817.06458h4.51764a.30674.30674,0,0,0,.18817-.06458l3.42029-2.6604.11945-.05975-2.77912,3.537-.00042.0008a.30483.30483,0,0,0-.04328.07922l-.00226.006-.00518.01374-.004.01116-.00055.00153L8.92267,14.41342l-.9624.99457-.96234-.99457L4.80835,5.96628l-.00042-.001L4.80378,5.953,4.7992,5.941a.30319.30319,0,0,0-.04608-.0863l-.00043-.0008-2.77911-3.537Zm8.29175,8.83954.751-.75629.79346-.04809L11.2981,11.458l-1.02765.19922Zm-4.73462.4411L4.6225,11.458l-.63116-1.04626.79345.04809.751.75629ZM1.00757,2.07975,3.27295,4.96286.601,3.39859ZM.80134,4.22617,3.48707,5.79856l-2.09089.12719ZM.62714,9.594,1.424,6.53812l2.85424-.17371.95234,3.67432-.09308-.09381a.30669.30669,0,0,0-.199-.08991L3.4433,9.7645H3.44288Zm.11554.62109,2.50568.15173L4.168,11.89133a.30643.30643,0,0,0,.20405.14258l1.44848.28082.50476,1.94739H5.1L1.87891,12.54026Zm.56958,3.15961c-.03741-.17066-.12848-.58838-.23566-1.08l.29505.6037a.30592.30592,0,0,0,.13092.13574l3.3761,1.80475a.30675.30675,0,0,0,.14447.03619h.81274l-.9411.74018C3.299,14.67972,1.611,13.63944,1.31226,13.37473Zm4.21216,2.52508,1.16913-.91937.79962.82629-.8302.55512Zm4.19781,1.15308-1.762.44409-1.7619-.44409-.27063-.328.65533.26593a.30641.30641,0,0,0,.28553-.02912l1.09167-.72992L9.052,16.9617a.30639.30639,0,0,0,.28552.02912l.65533-.26593Zm-.4646-.691-.8302-.55512.79956-.82629,1.16919.91937Zm5.35065-2.98712c-.2987.26471-1.98669,1.305-3.58246,2.24054l-.9411-.74018h.81281a.30646.30646,0,0,0,.14447-.03619l3.376-1.80475a.306.306,0,0,0,.13093-.13574l.295-.60376C14.73688,12.78623,14.64576,13.204,14.60828,13.37473Zm-.56659-.83447-3.22095,1.72186H9.59522L10.1,12.31473l1.44849-.28082a.30643.30643,0,0,0,.204-.14258l.91962-1.52448,2.50573-.15173Zm-1.564-2.77576-.00061.00006-1.495.09045a.30669.30669,0,0,0-.199.08991l-.09314.09381.95239-3.67432,2.85425.17371L15.2934,9.594Z" transform="translate(0.0689 -1.12413)" />
  </g>
</svg>